# xmcd
#
# Track frame offsets:
#	150
#	12977
#	26250
#	38685
#	51017
#	64067
#	78018
#	92512
#	109534
#	123230
#	137698
#	152105
#	162159
#	172662
#	185774
#	198946
#	214543
#	225050
#	237555
#	250914
#	262866
#	275199
#	286593
#	298031
#	309632
#
# Disc length: 4270 seconds
#
# Revision: 1
# Processed by: cddbd v1.5.2PL0 Copyright (c) Steve Scherf et al.
# Submitted via: audiograbber 1.83.01
#
DISCID=4210ac19
DTITLE=Various Artist - Devils Jump  - 1946-54 [CD3]
DYEAR=1900
DGENRE=Blues
TTITLE0=Lee Brown - Low Land Blues
TTITLE1=Lee Brown - Round The World Boogie
TTITLE2=Jimmie Gordon - My Baby's Acting Funny
TTITLE3=Jimmie Gordon - It's My Time To Go
TTITLE4=John Lee Hooker - Devil's Jump
TTITLE5=John Lee Hooker - I'm Gonna Kill That Woman
TTITLE6=Walter Mitchell - Stop Messing Around
TTITLE7=Walter Mitchell - Pet Milk Blues
TTITLE8=John Lee Hooker - Moaning Blues
TTITLE9=John Lee Hooker - The Numbers
TTITLE10=Robert Richard - Root Hog
TTITLE11=Smokey Hogg - Gone Gone Gone
TTITLE12=Smokey Hogg - Baby Don't Leave
TTITLE13=Memphis Slim - (Sometimes I Feel Like A) Motherless Child
TTITLE14=Memphis Slim - Life Is Like That
TTITLE15=John Lee - Baby Blues
TTITLE16=John Lee - In My Father's House
TTITLE17=Country Paul - Mother Dear Mother
TTITLE18=Country Paul - Side Walk Boogie
TTITLE19=Robert Henry - Early In The Morning
TTITLE20=Robert Henry - Miss Anna B
TTITLE21=Ralph Willis - Door Bell Blues
TTITLE22=Ralph Willis - Why'd You Do It
TTITLE23=Johnny Wright - Boogie Baby
TTITLE24=Johnny Wright - '54 Blues
EXTD=
EXTT0=
EXTT1=
EXTT2=
EXTT3=
EXTT4=
EXTT5=
EXTT6=
EXTT7=
EXTT8=
EXTT9=
EXTT10=
EXTT11=
EXTT12=
EXTT13=
EXTT14=
EXTT15=
EXTT16=
EXTT17=
EXTT18=
EXTT19=
EXTT20=
EXTT21=
EXTT22=
EXTT23=
EXTT24=
PLAYORDER=
